<?xml version="1.0" standalone="no"?>
<!DOCTYPE svg PUBLIC "-//W3C//DTD SVG 20010904//EN"
 "http://www.w3.org/TR/2001/REC-SVG-20010904/DTD/svg10.dtd">
<svg version="1.0" xmlns="http://www.w3.org/2000/svg"
 width="128.000000pt" height="128.000000pt" viewBox="0 0 128.000000 128.000000"
 preserveAspectRatio="xMidYMid meet">

<g transform="translate(0.000000,128.000000) scale(0.100000,-0.100000)"
fill="#000000" stroke="none">
<path d="M220 928 c0 -7 14 -33 31 -58 30 -44 79 -134 79 -145 0 -3 -19 -5
-42 -6 -24 0 -63 -4 -88 -8 -38 -7 -30 -9 51 -10 76 -1 98 -4 103 -16 5 -13
-14 -15 -131 -15 -75 0 -134 -2 -132 -4 3 -3 55 -14 116 -25 62 -11 130 -29
151 -40 35 -18 39 -24 55 -93 10 -40 17 -88 17 -105 0 -30 -3 -33 -30 -33 -20
0 -30 -5 -30 -16 0 -12 9 -14 43 -12 l42 3 -1 75 c-2 91 -43 224 -109 348 -24
45 -41 82 -38 82 3 0 98 -68 211 -151 201 -148 252 -179 240 -147 -5 11 4 19
30 27 20 7 42 14 48 17 7 3 11 -2 10 -12 -1 -12 27 -26 115 -57 116 -40 117
-40 178 -27 64 13 74 22 86 77 5 26 3 33 -8 33 -9 0 -18 -13 -22 -30 -13 -58
-88 -72 -190 -36 -80 28 -77 32 9 12 51 -12 63 -12 95 1 44 18 51 28 51 71 0
41 -23 39 -30 -3 -8 -48 -48 -56 -155 -30 l-90 21 50 32 c61 38 68 39 85 7 18
-34 37 -31 61 9 12 20 26 33 34 30 13 -5 55 44 55 65 0 20 -19 11 -41 -19
l-22 -29 -13 25 c-12 23 -11 29 11 61 23 34 25 53 5 53 -5 0 -18 -17 -30 -37
l-21 -38 -74 3 -73 4 -7 -55 c-4 -30 -11 -60 -15 -67 -12 -20 -265 -9 -287 13
-15 15 -5 16 124 10 l140 -6 7 43 c4 23 4 45 1 48 -6 6 -317 -16 -346 -24 -10
-3 -72 36 -153 96 -75 55 -141 100 -146 100 -6 0 -10 -6 -10 -12z m838 -216
c4 -25 -13 -30 -22 -6 -9 25 -7 36 7 32 6 -3 13 -14 15 -26z"/>
<path d="M515 879 c30 -95 29 -94 73 -97 81 -6 80 10 -3 68 -68 46 -76 50 -70
29z"/>
<path d="M373 769 c3 -8 21 -51 39 -96 32 -79 34 -82 75 -92 23 -6 70 -11 104
-11 l62 0 -24 18 c-110 85 -261 192 -256 181z"/>
<path d="M647 543 c-3 -5 -1 -29 4 -53 12 -55 7 -70 -27 -70 -16 0 -24 -5 -21
-12 4 -14 75 -14 88 -1 9 9 -16 122 -29 135 -6 6 -12 6 -15 1z"/>
</g>
</svg>
